<?xml version="1.0" standalone="no"?>
<!DOCTYPE svg PUBLIC "-//W3C//DTD SVG 20010904//EN"
 "http://www.w3.org/TR/2001/REC-SVG-20010904/DTD/svg10.dtd">
<svg version="1.0" xmlns="http://www.w3.org/2000/svg"
 width="485.000000pt" height="111.000000pt" viewBox="0 0 485.000000 111.000000"
 preserveAspectRatio="xMidYMid meet">

<g transform="translate(0.000000,111.000000) scale(0.100000,-0.100000)"
fill="#000000" stroke="none">
<path d="M1100 953 c-35 -13 -60 -47 -60 -83 0 -50 23 -77 80 -94 92 -27 112
-53 72 -89 -28 -25 -76 -21 -112 9 -29 25 -33 26 -48 10 -15 -15 -15 -18 11
-43 22 -23 37 -28 91 -31 62 -4 67 -3 96 26 19 20 30 41 30 59 0 52 -22 70
-137 113 -60 22 -45 84 21 84 23 0 44 -8 59 -22 23 -22 24 -22 40 -4 16 18 16
20 0 34 -41 35 -98 47 -143 31z"/>
<path d="M1695 863 c-21 -54 -48 -125 -61 -157 -30 -73 -30 -76 -1 -76 19 0
27 8 37 40 l13 40 72 0 72 0 12 -40 c10 -34 16 -40 40 -40 l29 0 -63 163 c-56
145 -65 162 -88 165 -23 3 -27 -4 -62 -95z m84 -33 c12 -30 21 -58 21 -62 0
-5 -20 -8 -45 -8 -25 0 -45 3 -45 6 0 11 43 125 46 122 1 -2 12 -28 23 -58z"/>
<path d="M2260 935 c0 -20 5 -25 25 -25 l25 0 0 -115 0 -115 -25 0 c-20 0 -25
-5 -25 -25 0 -25 1 -25 81 -25 78 0 80 1 77 23 -2 16 -11 23 -30 25 l-28 3 0
115 0 114 31 0 c26 0 30 3 27 23 -3 20 -9 22 -80 25 -78 3 -78 3 -78 -23z"/>
<path d="M2810 795 l0 -165 27 0 26 0 -6 123 -7 122 24 -30 c14 -16 55 -71 93
-122 50 -68 74 -92 91 -93 22 0 22 0 22 166 l0 165 -22 -3 c-23 -3 -23 -5 -21
-127 2 -71 -1 -121 -6 -115 -4 5 -48 62 -96 127 -122 163 -125 162 -125 -48z"/>
<path d="M3457 953 c-4 -3 -7 -14 -7 -24 0 -14 10 -19 48 -21 l47 -3 3 -137 3
-138 24 0 25 0 0 140 0 140 45 0 c41 0 45 2 45 25 l0 25 -113 0 c-63 0 -117
-3 -120 -7z"/>
<path d="M1737 433 c-4 -3 -7 -46 -7 -95 l0 -88 53 0 c76 0 109 32 82 83 -7
15 -9 30 -4 38 13 20 11 27 -11 49 -20 20 -98 29 -113 13z m98 -48 c0 -16 -8
-21 -37 -23 -35 -3 -38 -1 -38 23 0 24 3 26 38 23 29 -2 37 -7 37 -23z m9 -64
c14 -22 -7 -41 -45 -41 -35 0 -39 3 -39 25 0 22 4 25 39 25 22 0 42 -4 45 -9z"/>
<path d="M2110 346 l0 -96 55 0 c42 0 55 3 55 15 0 11 -11 15 -40 15 l-39 0
-3 77 c-2 50 -7 78 -15 81 -10 3 -13 -20 -13 -92z"/>
<path d="M2460 370 c0 -62 3 -74 25 -95 31 -32 74 -33 103 -2 18 20 22 35 22
96 0 54 -3 72 -12 69 -8 -3 -14 -29 -16 -68 -3 -71 -13 -90 -46 -90 -36 0 -46
20 -46 92 0 54 -3 68 -15 68 -12 0 -15 -14 -15 -70z"/>
<path d="M2860 345 l0 -95 55 0 c42 0 55 3 55 15 0 11 -12 15 -45 15 -41 0
-45 2 -45 25 0 23 4 25 40 25 29 0 40 4 40 15 0 11 -11 15 -40 15 -36 0 -40 3
-40 25 0 23 4 25 45 25 33 0 45 4 45 15 0 12 -13 15 -55 15 l-55 0 0 -95z"/>
</g>
</svg>
